<svg width="10" height="10" viewBox="0 0 10 10" fill="none" xmlns="http://www.w3.org/2000/svg">
<g clip-path="url(#clip0_45_220)">
<path d="M6.68697 5.74548C6.69417 5.72934 6.7008 5.71297 6.70686 5.69638C6.7994 5.43648 6.57396 5.23776 6.35033 5.33708C6.13148 5.48063 5.97169 5.69255 5.78667 5.8795C5.63226 6.03553 5.40949 6.21543 5.28672 6.39581C5.22974 6.47952 5.29515 6.62859 5.31957 6.713L5.39864 6.77487C5.55345 6.79678 5.56807 6.79658 5.71042 6.73006C5.71046 6.74416 5.71133 6.75824 5.713 6.77224C5.73485 6.94654 5.82493 7.17852 5.93416 7.314C6.05813 7.46777 6.24547 7.62582 6.39185 7.75931C6.44012 7.80333 6.49328 7.88857 6.54725 7.9434C6.6878 8.08616 6.83268 8.21559 6.97804 8.35097C7.04218 8.41069 7.13099 8.52851 7.20692 8.60467C7.33584 8.73397 7.46704 8.85553 7.59549 8.98397C7.73334 9.12184 7.93494 9.3599 8.08459 9.47634C8.16308 9.46228 8.3482 9.66827 8.45962 9.71987L8.44174 9.73298C8.46181 9.75228 8.47347 9.76082 8.48581 9.78614C8.84304 9.94044 9.22627 9.82911 9.49989 9.53686C9.8216 9.1932 9.82739 8.86918 9.65672 8.43551C9.64051 8.39432 9.51009 8.2699 9.46766 8.22519C8.82472 7.54785 8.14827 6.90091 7.49767 6.23055C7.24885 5.97417 7.05471 5.786 6.68697 5.74548ZM8.57973 9.24726C8.40047 9.18884 7.95719 8.65292 7.78337 8.50467C7.64329 8.38518 7.45455 8.16735 7.31892 8.03172L6.70334 7.41526C6.61983 7.33207 6.45165 7.18662 6.38182 7.08754C6.33394 7.01961 6.38846 6.92037 6.49171 6.90572C6.61832 6.94089 7.0815 7.45423 7.19579 7.57135L7.78039 8.15861L8.3484 8.7325C8.42405 8.80789 8.84627 9.13145 8.64272 9.22695C8.62268 9.23642 8.60151 9.24323 8.57973 9.24726ZM9.01416 8.76769C8.95286 8.73469 8.65099 8.40414 8.57439 8.32747L7.46742 7.21577C7.29299 7.03997 6.97484 6.757 6.84746 6.56219C6.83281 6.47237 6.93091 6.41515 7.00672 6.42414C7.11528 6.5012 7.20104 6.61554 7.29592 6.71079L7.9517 7.36721C8.1458 7.5637 8.346 7.74968 8.53475 7.95397C8.67966 8.09538 8.83309 8.23191 8.96813 8.38289C9.04336 8.467 9.1537 8.56671 9.17586 8.6797C9.19224 8.76324 9.09361 8.78597 9.03017 8.77154L9.02435 8.77026C9.02095 8.76941 9.01756 8.76855 9.01416 8.76769Z" fill="black"/>
<path d="M2.86494 2.42578C2.84182 2.43703 2.77901 2.46837 2.76244 2.48261C2.67736 2.55565 2.43312 2.79231 2.3986 2.88376C2.41568 3.02395 2.83452 3.53799 2.93333 3.66967C2.9989 3.75704 3.06247 3.88169 3.14252 3.95659C3.31895 4.07543 3.65553 4.07133 3.81666 4.20337C4.09846 4.43741 4.3161 4.73387 4.58579 4.98304C4.7373 5.12301 4.87801 5.31895 5.04631 5.44448C5.1086 5.49095 5.38704 5.78283 5.41697 5.76937C5.54597 5.71129 5.63199 5.54566 5.75342 5.46157C5.4705 5.19027 5.19973 4.8818 4.92005 4.60701L4.33087 4.01709C4.28563 3.97252 4.19487 3.91653 4.15788 3.86947C4.01008 3.68147 4.03008 3.34197 3.88613 3.15473C3.83689 3.09067 3.70381 3.03181 3.64041 2.97864C3.59194 2.938 3.48711 2.81596 3.42622 2.79591C3.40076 2.79563 3.33187 2.80603 3.32658 2.80386C3.23536 2.76629 3.18863 2.66152 3.10349 2.62638C3.03959 2.60001 3.03358 2.59413 3.02691 2.53157C2.98286 2.49662 2.91455 2.45391 2.86494 2.42578Z" fill="black"/>
<path d="M1.88491 0.587158C1.8078 0.612429 1.51598 0.995624 1.40603 1.04275C1.31674 1.08102 1.10502 0.932652 1.02336 0.888683C0.933626 0.841106 0.841107 0.799003 0.746321 0.762605C0.82242 0.872197 0.855854 0.972337 0.910446 1.09417C0.962654 1.21069 1.00576 1.28824 1.07416 1.39392C0.923413 1.54449 0.698743 1.78911 0.548773 1.91761C0.741321 1.88407 0.964959 1.85658 1.15975 1.83234C1.17584 1.83276 1.24115 1.8168 1.26091 1.81236C1.40038 2.01453 1.48889 2.23761 1.61544 2.46054C1.64084 2.21695 1.68464 1.96842 1.71873 1.72484C1.89804 1.71095 2.08381 1.66401 2.26287 1.64298C2.3044 1.63809 2.34407 1.63671 2.38376 1.62255L2.38965 1.6086C2.32569 1.53298 1.86236 1.33904 1.80095 1.28538C1.78258 1.23968 1.86864 0.677112 1.88491 0.587158Z" fill="black"/>
<path d="M1.51896 4.00952C1.49936 4.01589 1.16039 4.34505 1.1127 4.38917C0.980983 4.33732 0.70183 4.21508 0.582404 4.15073C0.618016 4.24177 0.827326 4.60699 0.82576 4.66163C0.825001 4.688 0.812647 4.71015 0.796324 4.73C0.751694 4.7843 0.687462 4.8271 0.637355 4.87747C0.562335 4.95291 0.496217 5.03784 0.421723 5.11451C0.535672 5.08428 0.770896 5.04953 0.892433 5.04415C0.935692 5.04288 0.987958 5.03681 1.03177 5.03291C1.0853 5.13658 1.23656 5.44335 1.2655 5.54601C1.33345 5.35419 1.35375 5.15497 1.39126 4.95392C1.49957 4.92622 1.84676 4.86387 1.95528 4.86369L1.96265 4.854C1.95741 4.84656 1.95484 4.83934 1.94686 4.83634C1.77007 4.76984 1.615 4.67077 1.45079 4.5774C1.47009 4.39728 1.50687 4.18126 1.51896 4.00952Z" fill="black"/>
<path d="M5.05862 0.463135C4.99765 0.477277 4.72806 0.770336 4.64899 0.838463C4.48561 0.785233 4.25438 0.665647 4.11219 0.57045C4.18521 0.77881 4.31943 0.955444 4.37629 1.12248C4.25753 1.25816 4.06981 1.40393 3.95944 1.55322C4.12559 1.52437 4.26336 1.48367 4.43528 1.47387C4.47528 1.47024 4.51997 1.4686 4.56046 1.46619C4.61916 1.57292 4.77798 1.90161 4.80944 2.00904C4.83712 1.88061 4.86227 1.75165 4.88491 1.62223C4.89884 1.54396 4.90317 1.47663 4.92931 1.40084C5.13069 1.35859 5.34088 1.32462 5.54639 1.31495C5.38101 1.25363 5.36092 1.2245 5.21177 1.13804C5.15798 1.10687 5.04583 1.05975 4.97945 1.02538C5.01095 0.843055 5.02785 0.649668 5.05862 0.463135Z" fill="black"/>
<path d="M3.56553 5.10132C3.47499 5.16799 3.39328 5.30074 3.28109 5.37424C3.16186 5.45234 2.91932 5.22305 2.84827 5.23305C2.84306 5.25105 2.84494 5.26578 2.8534 5.28254C2.92284 5.42009 2.96991 5.49718 3.01251 5.64869C2.87677 5.78276 2.82775 5.85511 2.67064 5.98028C2.78363 5.95939 2.9634 5.93318 3.07629 5.92516C3.20356 5.90384 3.2031 5.96603 3.25557 6.07605C3.30595 6.18169 3.32964 6.23972 3.40416 6.33178C3.40978 6.19056 3.43922 6.00513 3.46501 5.86567C3.62271 5.83617 3.77446 5.79372 3.93433 5.77123C3.81906 5.71849 3.60869 5.62573 3.50758 5.56119C3.5241 5.45541 3.56773 5.20032 3.56553 5.10132Z" fill="black" fill-opacity="0.988235"/>
<path d="M6.04437 2.6123C6.04276 2.61268 6.04112 2.61295 6.03953 2.61343C6.0369 2.6142 6.03434 2.61519 6.03175 2.61604C5.991 2.62937 5.7851 2.86694 5.73286 2.91612C5.64668 2.89644 5.36501 2.76883 5.28879 2.72225C5.36666 2.86408 5.42585 2.99871 5.50961 3.14657C5.43254 3.20179 5.24564 3.41129 5.17335 3.48852C5.29415 3.45394 5.45505 3.4388 5.58149 3.42997C5.59643 3.42585 5.61065 3.4281 5.62627 3.42908C5.6761 3.4654 5.83285 3.77165 5.86011 3.84628C5.96243 3.24781 5.80833 3.40657 6.41162 3.29415C6.30934 3.23186 6.09343 3.10473 5.9792 3.07341C5.9886 2.97177 6.0495 2.68219 6.04437 2.6123Z" fill="black" fill-opacity="0.988235"/>
<path d="M8.48584 9.78608C8.4735 9.76075 8.46183 9.75222 8.44176 9.73291L8.45964 9.71981C8.34822 9.66821 8.16311 9.46222 8.08461 9.47627C8.24381 9.61811 8.27682 9.70778 8.48584 9.78608Z" fill="black" fill-opacity="0.952941"/>
<path d="M3.42627 2.79583C3.30371 2.74209 3.15807 2.60577 3.02696 2.53149C3.03363 2.59405 3.03964 2.59993 3.10354 2.6263C3.18868 2.66145 3.23541 2.76621 3.32663 2.80378C3.33192 2.80595 3.40081 2.79555 3.42627 2.79583Z" fill="black" fill-opacity="0.960784"/>
</g>
<defs>
<clipPath id="clip0_45_220">
<rect width="10" height="10" fill="white" transform="matrix(-1 0 0 1 10 0)"/>
</clipPath>
</defs>
</svg>
